<svg version="1.1" id="Layer_1" xmlns="http://www.w3.org/2000/svg" xmlns:xlink="http://www.w3.org/1999/xlink" x="0px" y="0px"
	 width="100%" viewBox="0 0 96 96" enable-background="new 0 0 96 96" xml:space="preserve">
<path fill="#000000" opacity="1.000000" stroke="none" 
	d="
M79.318619,96.647064 
	C54.031548,97.000000 29.063021,96.973503 4.094775,97.044891 
	C1.835571,97.051346 0.905872,96.844795 0.917797,94.101860 
	C1.048780,63.973835 1.039464,33.844875 0.925853,3.716704 
	C0.916662,1.279250 1.505618,0.932495 3.776818,0.939347 
	C33.905140,1.030235 64.034111,1.057028 94.161980,0.908541 
	C97.057663,0.894269 97.035248,2.037981 97.031006,4.154919 
	C96.982338,28.457430 97.000000,52.760075 97.000000,77.531342 
	C91.618118,79.422386 90.112946,75.072464 87.747757,71.452377 
	C87.540550,70.228004 87.501190,69.400406 87.478394,68.154457 
	C87.465294,66.340271 87.153900,64.955055 87.285767,63.127892 
	C86.761505,60.430573 87.035767,58.161613 87.264999,55.470276 
	C86.612694,50.852444 87.004097,46.639515 86.896469,42.051407 
	C87.387955,36.605175 85.213974,34.317169 80.070961,34.787415 
	C78.930702,34.891670 77.802177,34.329109 76.533798,33.355255 
	C76.098923,32.829067 75.956772,32.588100 75.683487,31.940525 
	C74.214920,27.770878 75.344788,23.908070 74.941254,19.690542 
	C74.570869,16.465511 73.028145,15.184858 70.227325,15.169410 
	C52.118347,15.069529 34.009537,15.093509 15.900547,15.157085 
	C12.903029,15.167609 11.228054,16.524107 10.889180,19.980717 
	C11.138628,27.549702 11.478663,34.679958 10.745863,42.260620 
	C11.277956,47.195900 11.351575,51.671673 10.666007,56.549026 
	C9.936176,64.144592 15.732000,62.554779 19.964785,63.696999 
	C20.585680,63.939896 20.823862,64.070084 21.364147,64.481865 
	C22.380644,65.687019 22.546734,66.763359 22.576284,68.285210 
	C23.386057,71.921082 22.937113,75.219444 23.075521,78.488953 
	C23.183208,81.032722 23.832952,83.058830 27.267460,83.232880 
	C30.831999,82.806953 33.998959,82.821770 37.607712,83.108101 
	C41.047001,83.255447 44.035458,82.621017 47.491444,83.086975 
	C51.277603,83.316376 54.625031,82.422356 58.411976,83.329315 
	C59.483440,83.478409 60.100159,83.544739 61.182365,83.679420 
	C65.270218,85.189224 69.081932,84.795700 72.841507,84.912148 
	C80.440086,85.147507 82.896423,89.263649 79.318619,96.647064 
z"/>
<path fill="#C866E8" opacity="1.000000" stroke="none" 
	d="
M88.613792,70.731415 
	C91.112907,73.820717 93.656586,76.386780 96.755455,78.320290 
	C97.000000,79.714355 97.000000,81.428719 97.000000,83.571533 
	C93.522064,88.865005 89.554710,93.240967 84.244812,96.760025 
	C82.611107,97.000000 81.222221,97.000000 79.416664,97.000000 
	C79.003052,87.001244 79.001495,87.096191 69.152115,86.934746 
	C66.504906,86.891357 63.543068,88.116066 61.025558,85.350815 
	C58.892944,82.783920 59.632996,80.144798 59.701130,77.214844 
	C59.889748,76.543167 59.998901,76.286697 60.361404,75.702644 
	C64.283516,72.828453 68.330635,75.283897 72.493950,74.503090 
	C73.086426,74.501717 73.317963,74.501060 73.885941,74.496445 
	C74.647293,74.478714 75.070786,74.447227 75.771210,74.310486 
	C76.393288,74.061790 76.693512,73.837212 77.045502,73.273636 
	C77.642189,71.356331 77.474670,69.660301 77.549240,67.635300 
	C77.604034,67.054665 77.644737,66.820564 77.818954,66.246918 
	C78.084831,65.697975 78.217186,65.488586 78.607880,65.006058 
	C79.071526,64.586113 79.276840,64.439323 79.830177,64.139244 
	C80.669380,63.851139 81.169327,63.795731 82.045227,63.879913 
	C82.640289,64.026352 82.868256,64.113495 83.396713,64.400787 
	C85.092438,66.694733 87.065544,68.325142 88.613792,70.731415 
z"/>
<path fill="#000000" opacity="1.000000" stroke="none" 
	d="
M84.476662,97.000000 
	C84.183189,93.733978 87.216042,92.629295 88.991356,90.616982 
	C91.288239,88.013474 93.984283,85.762115 96.754234,83.679565 
	C97.000000,84.327408 97.000000,84.654816 97.000000,84.982224 
	C97.000000,88.911110 98.546410,94.608925 96.599586,96.310860 
	C94.285339,98.334015 88.968880,96.922966 84.476662,97.000000 
z"/>
<path fill="#50E6FF" opacity="1.000000" stroke="none" 
	d="
M76.654755,32.577507 
	C79.188477,32.907154 81.332802,32.980556 83.477509,32.994179 
	C89.355843,33.031521 90.177460,34.314041 88.015167,40.523991 
	C87.789894,43.087719 86.052078,43.928795 84.203415,45.104340 
	C83.501961,45.478321 83.092293,45.669704 82.372208,45.990437 
	C81.856613,46.204601 81.645477,46.276684 81.114182,46.439461 
	C78.162552,47.756592 75.909630,49.564415 73.326645,51.479759 
	C72.896477,51.856976 72.707207,51.989719 72.206528,52.278233 
	C66.302757,55.410336 62.002377,60.483063 55.393627,62.409771 
	C53.026989,62.655861 51.358807,61.856941 49.519775,60.528301 
	C48.268295,59.898560 47.501759,59.122780 46.231377,58.584206 
	C45.735718,58.441841 45.534180,58.394146 45.040710,58.237736 
	C44.371700,57.951321 44.014492,57.739746 43.401367,57.344559 
	C42.957745,57.066921 42.787205,56.943630 42.377502,56.612724 
	C41.678036,55.962734 41.268608,55.474434 40.666069,54.727955 
	C38.869637,52.960999 37.063377,51.740601 34.851772,50.538651 
	C33.393234,49.531147 32.249409,48.636795 30.805851,47.652504 
	C30.359898,47.439503 30.177303,47.366024 29.738525,47.154202 
	C29.321756,46.913002 29.161169,46.810150 28.542168,46.389175 
	C27.934528,45.966408 27.785309,45.861763 27.415054,45.601261 
	C27.049046,45.340878 26.904072,45.236351 26.546057,44.972816 
	C26.194162,44.706154 26.055307,44.598488 25.510883,44.164101 
	C24.969860,43.730373 24.834408,43.623371 24.275070,43.212978 
	C23.701305,42.814514 23.551426,42.719444 23.166800,42.483246 
	C22.770138,42.245415 22.608223,42.148712 22.201515,41.896225 
	C21.635038,41.495865 21.314562,41.249725 20.759212,40.776695 
	C20.389372,40.371925 20.255415,40.192726 19.964653,39.709122 
	C19.644558,38.961781 19.545990,38.504250 19.506966,37.670887 
	C19.545149,36.305923 19.558826,35.303322 20.010677,33.972427 
	C21.289179,31.948484 22.903641,31.080862 25.234051,30.665781 
	C25.918875,30.628935 26.194956,30.630894 26.883562,30.689095 
	C28.103855,30.986897 28.909252,31.240034 30.203602,31.266693 
	C39.174572,31.772964 47.713840,31.372372 56.718395,31.501274 
	C63.540432,31.931055 69.966133,30.592945 76.654755,32.577507 
z"/>
<path fill="#7B83EB" opacity="1.000000" stroke="none" 
	d="
M27.289295,32.117603 
	C26.726604,32.088680 26.559776,32.047295 26.147024,31.928467 
	C24.362480,30.771927 22.314741,30.776678 20.587080,29.289043 
	C16.813828,26.121275 12.038083,24.762415 9.373281,20.230419 
	C8.820561,13.003551 8.820561,13.001183 15.607474,13.000714 
	C34.425652,12.999416 53.244846,13.103695 72.061195,12.918323 
	C76.119797,12.878340 77.594398,14.262368 76.907410,18.555946 
	C75.617180,23.108389 71.766922,24.488676 68.715286,26.674316 
	C66.690765,28.124327 64.708595,29.647497 62.227936,31.079268 
	C61.454521,31.457539 60.992523,31.643679 60.157127,31.934677 
	C58.772114,32.405357 57.727222,32.551685 56.236588,32.498474 
	C47.782055,32.498859 39.744389,32.498726 31.292595,32.498764 
	C29.786041,32.594604 28.745655,32.268303 27.289295,32.117603 
z"/>
<path fill="#22A7E6" opacity="1.000000" stroke="none" 
	d="
M41.908226,53.790154 
	C42.540310,54.309757 42.855751,54.661938 43.227264,55.249184 
	C43.219654,56.221981 43.382153,56.947807 43.383842,58.048851 
	C39.335823,67.819977 33.669575,76.225914 27.263819,84.588455 
	C22.521891,85.767555 20.406912,84.302162 20.937298,79.410973 
	C21.276720,76.280815 21.012604,73.085205 21.092476,69.457390 
	C24.616129,62.529823 28.778345,56.479877 32.535500,49.798630 
	C33.275646,49.384518 33.747711,49.306248 34.576477,49.485283 
	C36.914577,51.327217 38.963058,52.958355 41.908226,53.790154 
z"/>
<path fill="#1FA3E5" opacity="1.000000" stroke="none" 
	d="
M82.742859,44.237137 
	C84.451698,43.108871 85.934692,42.150505 87.721405,41.058846 
	C90.209145,45.175777 88.425316,49.711845 88.903183,54.538361 
	C82.362541,61.149986 74.855179,65.753670 66.530167,69.760147 
	C63.744259,69.968811 61.863258,68.786362 59.842068,67.037262 
	C59.438026,66.554047 59.296959,66.343979 59.008072,65.784363 
	C58.668510,64.694611 58.659935,63.946590 58.863831,62.840004 
	C59.073517,62.271847 59.183964,62.057423 59.523273,61.568913 
	C60.601551,60.549568 61.823570,60.340874 62.713455,59.107552 
	C63.058731,58.683304 63.209324,58.525070 63.619797,58.171246 
	C64.803970,57.512043 65.865555,57.259968 66.643768,56.035210 
	C67.995506,53.887959 70.128723,53.047382 71.769127,51.193195 
	C71.988449,50.955048 71.989441,51.006714 71.969971,50.989723 
	C75.135162,49.642994 78.276009,48.245361 80.735733,45.184074 
	C80.958305,44.920849 81.004959,44.968929 80.971680,44.965084 
	C81.403481,44.602379 81.961197,44.507412 82.742859,44.237137 
z"/>
<path fill="#1DA0E4" opacity="1.000000" stroke="none" 
	d="
M27.448479,84.905441 
	C27.561487,79.403961 31.838627,75.935219 34.146301,71.419991 
	C36.397667,67.014961 39.166981,62.874645 41.858154,58.304680 
	C42.456383,57.532784 42.940937,57.121635 43.825974,56.730804 
	C44.336189,56.625225 44.548912,56.636295 45.079544,56.679489 
	C45.397446,56.711613 45.669888,56.666100 45.776344,56.754082 
	C46.213818,57.179630 46.522594,57.536552 46.991531,58.217850 
	C47.759476,60.402981 49.395283,61.644802 50.231750,63.785297 
	C48.731270,72.236763 43.993599,78.500587 38.290222,84.603729 
	C34.631508,84.881271 31.266743,84.929810 27.448479,84.905441 
z"/>
<path fill="#27ADE9" opacity="1.000000" stroke="none" 
	d="
M32.972008,49.680779 
	C31.415462,57.557621 26.987118,63.426056 21.497887,68.929398 
	C21.105417,67.940437 21.044943,66.885033 20.927158,65.436432 
	C19.116259,63.094551 19.474669,60.679512 19.532593,58.397652 
	C19.671211,52.936901 19.003023,47.453556 20.211193,41.595482 
	C20.972406,40.709404 21.569178,40.502811 22.701721,40.762573 
	C23.147606,40.969452 23.595284,41.016220 23.816387,41.058220 
	C24.206017,41.247452 24.374542,41.394684 24.791229,41.767941 
	C25.039394,41.993969 24.995047,42.006908 24.999821,41.984306 
	C25.214745,42.213711 25.439541,42.451893 25.866697,42.834858 
	C26.054409,42.993469 25.996849,43.005116 26.000439,42.975975 
	C26.222044,43.218506 26.467033,43.463463 26.947330,43.836845 
	C27.159208,43.988487 27.592554,44.006359 27.807537,44.034813 
	C28.192799,44.219833 28.363079,44.376400 28.794182,44.761795 
	C29.055008,44.990623 28.998091,45.003513 29.002472,44.974663 
	C29.209782,45.207291 29.433136,45.449970 29.867243,45.832203 
	C30.057570,45.990551 29.997154,45.975945 30.016256,45.951431 
	C30.944935,47.122807 32.272957,47.963520 32.972008,49.680779 
z"/>
<path fill="#199BE2" opacity="1.000000" stroke="none" 
	d="
M38.445862,84.904945 
	C40.093498,78.711861 44.574871,73.954666 47.477959,68.290871 
	C48.071617,67.132675 48.987080,66.139427 48.986736,64.366859 
	C51.556885,61.568886 54.374615,64.063728 57.449883,63.632381 
	C58.411289,63.849060 58.908321,64.100365 59.675575,64.721870 
	C59.993896,64.996948 59.999012,65.496742 60.000988,65.746643 
	C57.832466,73.152649 53.691036,79.081825 48.274651,84.611786 
	C44.962978,84.881218 41.929214,84.929184 38.445862,84.904945 
z"/>
<path fill="#555CC0" opacity="1.000000" stroke="none" 
	d="
M20.763721,27.804790 
	C23.046312,28.481281 24.694138,29.457657 25.839333,31.539986 
	C24.494322,32.485596 23.087545,33.120159 21.375662,33.892265 
	C19.655821,34.972076 20.531778,36.259544 20.712811,37.688637 
	C20.956820,38.353989 21.047802,38.749924 21.126427,39.450592 
	C20.074423,42.015667 20.647804,44.418873 20.476135,47.145798 
	C18.556376,49.938381 16.966633,52.561314 15.191240,55.052246 
	C13.882821,56.887993 12.566941,58.906158 9.468289,58.228333 
	C9.120006,53.302288 9.074116,48.610695 9.097079,43.457176 
	C11.335606,39.184666 13.337294,35.274132 15.791348,31.632191 
	C16.956207,29.903482 17.933081,27.896008 20.763721,27.804790 
z"/>
<path fill="#1696E0" opacity="1.000000" stroke="none" 
	d="
M48.450005,84.904922 
	C50.980431,78.160011 55.070255,72.170647 59.714779,66.171303 
	C61.798672,66.901451 63.594379,67.806358 65.694901,68.856331 
	C69.117882,69.080849 71.642830,69.845474 71.227867,74.070305 
	C68.019547,76.078445 64.569260,73.769272 61.328133,75.823235 
	C61.047371,76.110672 61.040180,76.038353 61.076271,76.042572 
	C58.810890,78.433372 60.894775,81.683243 59.240990,84.543625 
	C55.623791,84.885094 52.263527,84.930847 48.450005,84.904922 
z"/>
<path fill="#1C9FE3" opacity="1.000000" stroke="none" 
	d="
M71.332809,74.248749 
	C70.418213,71.502640 67.961685,70.976120 66.215248,69.247086 
	C73.394516,64.394653 80.126152,58.729294 88.491501,55.061260 
	C88.880226,57.370319 88.926872,59.743881 88.903801,62.557335 
	C87.851013,64.067833 86.983429,65.274574 85.176582,65.886093 
	C84.323853,65.988876 83.841064,65.921600 83.017929,65.663147 
	C82.663788,65.564842 82.618950,65.323364 82.738136,65.293793 
	C82.324417,64.128517 81.350052,64.586311 80.247818,64.846230 
	C79.999702,65.082428 80.000488,65.008659 80.037369,65.009384 
	C79.797554,65.216789 79.547043,65.451118 79.172638,65.924652 
	C79.018280,66.131683 78.961990,66.590584 78.898422,66.812843 
	C78.242249,68.468132 78.442200,69.983604 78.532120,71.442291 
	C78.691048,74.020210 77.564972,75.127914 74.621597,74.983414 
	C73.317604,74.962410 72.444405,74.962029 71.332809,74.248749 
z"/>
<path fill="#5860C2" opacity="1.000000" stroke="none" 
	d="
M20.911512,27.640396 
	C17.504665,30.722807 16.181753,35.108494 13.706248,38.697231 
	C12.600203,40.300667 11.925115,42.213211 9.497806,42.928795 
	C9.119643,35.627888 9.073353,28.260530 9.092710,20.426037 
	C13.358692,21.885139 17.041788,24.618238 20.911512,27.640396 
z"/>
<path fill="#5159BD" opacity="1.000000" stroke="none" 
	d="
M9.097506,58.437881 
	C12.620692,57.323479 13.417775,54.094162 15.061237,51.736595 
	C16.181381,50.129734 16.729933,48.038891 19.584127,48.005280 
	C21.163851,53.284786 20.233297,58.647114 20.205811,64.389542 
	C18.322294,64.868469 16.634506,64.741913 15.021724,65.032150 
	C9.885637,65.956436 8.087140,63.795776 9.097506,58.437881 
z"/>
<path fill="#4E57C4" opacity="1.000000" stroke="none" 
	d="
M60.886333,30.494576 
	C66.084679,26.488514 71.182899,22.912510 76.559082,19.157619 
	C76.874512,23.005733 76.911972,27.032730 76.880676,31.517105 
	C71.881271,32.905628 66.935638,32.631424 61.616978,31.918489 
	C61.093014,31.427111 60.939610,31.175871 60.886333,30.494576 
z"/>
<path fill="#484FA9" opacity="1.000000" stroke="none" 
	d="
M20.194324,64.882507 
	C19.975916,59.511162 19.976082,54.218079 19.961975,48.456505 
	C20.222399,45.472595 19.464851,42.867802 20.858231,40.091209 
	C21.114073,39.755318 21.241165,39.737301 21.297358,39.768314 
	C21.449610,40.029037 21.545668,40.258743 21.380371,40.755245 
	C21.067545,48.717945 21.016071,56.413849 20.917223,64.576500 
	C20.869848,65.043243 20.412901,64.960770 20.194324,64.882507 
z"/>
<path fill="#454EAE" opacity="1.000000" stroke="none" 
	d="
M60.741058,30.782482 
	C65.855583,32.939709 70.937317,31.584064 76.358940,31.976360 
	C76.811935,31.974485 76.968353,32.407482 77.006165,32.634254 
	C70.685051,32.901005 64.326126,32.940987 57.504505,32.923714 
	C56.820793,32.726494 56.599777,32.586525 56.710346,32.236710 
	C57.831371,31.763237 58.620815,31.499615 59.700939,31.116869 
	C60.159801,30.848860 60.327984,30.699976 60.741058,30.782482 
z"/>
<path fill="#1389D0" opacity="1.000000" stroke="none" 
	d="
M59.287979,84.908028 
	C59.533760,81.992714 57.773216,78.774879 60.737801,76.151443 
	C61.063465,78.729515 61.014565,81.412231 60.901802,84.536797 
	C60.422600,84.977997 60.007252,84.977356 59.287979,84.908028 
z"/>
<path fill="#188FCF" opacity="1.000000" stroke="none" 
	d="
M82.755905,65.853867 
	C83.172798,65.402107 83.681816,65.239372 84.590919,65.049988 
	C86.834343,64.880989 87.588463,66.256477 88.647415,67.741501 
	C88.893387,68.740211 88.930939,69.495064 88.897568,70.622910 
	C85.885559,70.546371 84.722801,67.906059 82.755905,65.853867 
z"/>
<path fill="#199BE2" opacity="1.000000" stroke="none" 
	d="
M88.915939,67.572266 
	C87.217422,67.852890 86.188614,66.822426 85.148766,65.299583 
	C85.647003,63.716644 86.701752,63.042797 88.500916,63.009422 
	C88.881393,64.384537 88.928711,65.771843 88.915939,67.572266 
z"/>
<path fill="#1389D0" opacity="1.000000" stroke="none" 
	d="
M70.576157,73.956299 
	C71.769463,73.958855 72.511864,73.978584 73.625961,74.003578 
	C74.134598,74.132454 74.271530,74.256050 74.473778,74.648544 
	C74.481895,75.092796 74.424690,75.268166 74.117844,75.562866 
	C69.833473,75.795158 65.798759,75.908142 61.405708,76.065903 
	C63.292435,72.081375 67.137299,74.847313 70.576157,73.956299 
z"/>
<path fill="#1992D2" opacity="1.000000" stroke="none" 
	d="
M74.185074,75.190483 
	C73.980858,74.906281 73.990585,74.457481 73.994125,74.233170 
	C79.366508,74.609612 77.391563,70.094200 78.625046,67.351471 
	C78.877769,69.377579 78.920685,71.720055 78.906448,74.497803 
	C78.536530,75.305176 78.141724,75.514053 77.308083,75.605469 
	C76.539780,75.697342 76.115685,75.718430 75.373871,75.713425 
	C74.833862,75.616440 74.611572,75.545563 74.185074,75.190483 
z"/>
<path fill="#188FCF" opacity="1.000000" stroke="none" 
	d="
M80.363190,65.062653 
	C80.745110,64.173088 81.568665,63.825714 82.711487,64.994934 
	C82.147102,65.190445 81.436890,65.116661 80.363190,65.062653 
z"/>
<path fill="#4E7AD1" opacity="1.000000" stroke="none" 
	d="
M77.250748,75.754639 
	C77.422394,75.457138 77.880920,75.238037 78.594376,74.975998 
	C78.678772,75.621758 78.176292,75.826645 77.250748,75.754639 
z"/>
<path fill="#4E7AD1" opacity="1.000000" stroke="none" 
	d="
M73.944199,75.099030 
	C74.250023,75.036667 74.505386,75.190025 74.901550,75.526840 
	C74.858070,75.726463 74.659996,75.765602 74.165054,75.743462 
	C73.868187,75.682182 73.907547,75.291771 73.944199,75.099030 
z"/>
<path fill="#1992D2" opacity="1.000000" stroke="none" 
	d="
M79.258881,66.012589 
	C79.222237,65.851227 79.426193,65.570763 79.852196,65.150208 
	C79.882660,65.304565 79.691071,65.599030 79.258881,66.012589 
z"/>
<path fill="#1F97D0" opacity="1.000000" stroke="none" 
	d="
M71.640244,51.009193 
	C71.963478,53.590057 68.954620,54.191338 68.137711,56.687012 
	C66.996735,57.890240 65.633293,57.990013 64.254143,58.799843 
	C64.006042,59.005718 64.000000,59.000153 64.002792,59.004025 
	C62.984089,60.075706 61.901287,61.060608 60.250671,61.806137 
	C60.008495,62.007195 60.000153,62.000458 60.003990,62.005646 
	C59.503601,62.484188 59.066425,63.023022 58.244347,63.649063 
	C57.461597,63.886890 56.992104,63.895725 56.186432,63.715057 
	C55.233170,63.152405 54.875546,62.560379 54.903389,61.471264 
	C61.262630,59.096451 65.559258,53.919827 71.640244,51.009193 
z"/>
<path fill="#6E75D2" opacity="1.000000" stroke="none" 
	d="
M56.569580,32.012852 
	C57.041931,32.026859 57.036167,32.446796 57.038986,32.656628 
	C48.007881,32.901199 38.973961,32.935940 29.474337,32.920464 
	C28.891134,32.723881 28.773634,32.577518 28.825867,32.206528 
	C38.029476,31.987551 47.063351,31.993196 56.569580,32.012852 
z"/>
<path fill="#219DD6" opacity="1.000000" stroke="none" 
	d="
M80.612335,44.973938 
	C79.822807,49.119972 76.814735,50.781532 72.342346,50.981255 
	C74.217133,48.284073 77.359192,46.819809 80.612335,44.973938 
z"/>
<path fill="#2198D0" opacity="1.000000" stroke="none" 
	d="
M42.019402,53.680740 
	C39.207348,54.305058 36.841957,53.237209 35.061123,50.361290 
	C34.854324,49.819096 34.740227,49.615108 34.823837,49.121582 
	C37.285671,50.355999 39.549801,51.879951 42.019402,53.680740 
z"/>
<path fill="#1B91CD" opacity="1.000000" stroke="none" 
	d="
M54.661423,61.081230 
	C55.275589,61.595928 55.528320,62.057991 55.892609,62.759415 
	C52.593506,64.795502 50.189392,63.608273 48.754555,59.687580 
	C51.066887,58.976315 52.185123,61.243702 54.661423,61.081230 
z"/>
<path fill="#28A1D8" opacity="1.000000" stroke="none" 
	d="
M34.803261,48.598526 
	C35.013870,49.030506 35.006203,49.228970 34.983479,49.725258 
	C34.530289,50.017155 34.092159,50.011223 33.324997,50.004200 
	C31.627516,49.207813 30.457039,48.244675 30.068863,46.258415 
	C31.937117,46.020779 33.000088,47.679867 34.803261,48.598526 
z"/>
<path fill="#484FA9" opacity="1.000000" stroke="none" 
	d="
M20.910793,37.566528 
	C20.095299,36.748058 18.205297,35.648167 20.780331,34.083744 
	C21.032286,35.078205 20.994019,36.126610 20.910793,37.566528 
z"/>
<path fill="#1B91CD" opacity="1.000000" stroke="none" 
	d="
M46.334908,59.239990 
	C45.977070,58.526836 45.959694,58.046368 45.912560,57.203979 
	C47.001480,57.029999 48.004532,57.434177 48.893108,58.643768 
	C49.059151,58.924583 49.019127,58.974606 48.998657,58.999245 
	C48.290714,59.584621 47.524307,59.740372 46.334908,59.239990 
z"/>
<path fill="#747CDF" opacity="1.000000" stroke="none" 
	d="
M28.815023,31.796253 
	C28.995600,31.981905 29.002657,32.426430 29.005646,32.648338 
	C28.431314,32.778233 27.853994,32.686218 27.085052,32.362133 
	C27.349182,31.539343 27.863817,31.145977 28.815023,31.796253 
z"/>
<path fill="#1C99D9" opacity="1.000000" stroke="none" 
	d="
M44.249310,56.715584 
	C43.575397,57.284092 43.085384,57.594864 42.301388,57.948441 
	C42.274639,57.338867 42.541874,56.686497 43.046223,55.759186 
	C43.456509,55.515362 43.629681,55.546474 44.028839,55.713924 
	C44.314281,56.052788 44.373745,56.255318 44.249310,56.715584 
z"/>
<path fill="#28A1D8" opacity="1.000000" stroke="none" 
	d="
M21.456352,41.013996 
	C21.128731,40.812908 21.138443,40.603779 21.250854,40.096989 
	C21.837442,40.043911 22.321333,40.288498 22.976416,40.751266 
	C22.696301,40.981617 22.244993,40.993786 21.456352,41.013996 
z"/>
<path fill="#219DD6" opacity="1.000000" stroke="none" 
	d="
M82.676277,44.074326 
	C82.484436,44.349552 82.000160,44.631863 81.227142,44.937706 
	C81.420219,44.667961 81.902039,44.374680 82.676277,44.074326 
z"/>
<path fill="#28A1D8" opacity="1.000000" stroke="none" 
	d="
M25.932720,42.772198 
	C25.745018,42.852589 25.483183,42.650192 25.136749,42.173992 
	C25.273407,42.158112 25.542219,42.354519 25.932720,42.772198 
z"/>
<path fill="#22A7E6" opacity="1.000000" stroke="none" 
	d="
M44.400166,56.916779 
	C44.082069,56.784187 44.098724,56.595058 44.185101,56.128098 
	C44.587914,55.912422 44.871059,56.066486 45.250851,56.512028 
	C45.176605,56.761150 44.955765,56.810692 44.400166,56.916779 
z"/>
<path fill="#28A1D8" opacity="1.000000" stroke="none" 
	d="
M24.919432,41.795715 
	C24.755514,41.871891 24.508741,41.697369 24.168283,41.285309 
	C24.349602,41.176884 24.603594,41.342628 24.919432,41.795715 
z"/>
<path fill="#28A1D8" opacity="1.000000" stroke="none" 
	d="
M29.938736,45.765293 
	C29.794979,45.785553 29.532387,45.580551 29.138321,45.160686 
	C29.277868,45.143890 29.548885,45.341961 29.938736,45.765293 
z"/>
<path fill="#28A1D8" opacity="1.000000" stroke="none" 
	d="
M28.937494,44.780281 
	C28.759954,44.866791 28.504763,44.686535 28.155975,44.256561 
	C28.352009,44.131924 28.617828,44.300816 28.937494,44.780281 
z"/>
<path fill="#28A1D8" opacity="1.000000" stroke="none" 
	d="
M27.006577,43.772709 
	C26.871508,43.788322 26.583809,43.588158 26.150070,43.167412 
	C26.287334,43.150196 26.570641,43.353565 27.006577,43.772709 
z"/>
<path fill="#4A53BB" opacity="1.000000" stroke="none" 
	d="
M60.988094,30.776535 
	C60.985950,31.013874 60.488815,31.007885 60.240219,31.002815 
	C60.099117,30.688972 60.286327,30.440207 60.769859,30.157986 
	C60.986465,30.064518 60.990238,30.539198 60.988094,30.776535 
z"/>
<path fill="#209EDB" opacity="1.000000" stroke="none" 
	d="
M60.365440,61.993107 
	C60.765678,60.625237 61.740276,59.493927 63.681244,59.055340 
	C63.775337,60.953186 62.653400,61.913136 60.365440,61.993107 
z"/>
<path fill="#209EDB" opacity="1.000000" stroke="none" 
	d="
M57.777355,63.305988 
	C58.474884,62.692547 58.952820,62.389282 59.719292,62.048428 
	C60.004265,62.757324 60.000706,63.503815 59.995522,64.623627 
	C59.552158,64.996117 59.110424,64.995277 58.337318,64.993713 
	C57.624317,64.609642 57.474922,64.150703 57.777355,63.305988 
z"/>
<path fill="#209EDB" opacity="1.000000" stroke="none" 
	d="
M64.349777,58.995003 
	C64.687622,57.650681 65.809464,57.023399 67.646446,56.998756 
	C67.313942,58.350388 66.189445,58.973755 64.349777,58.995003 
z"/>
<path fill="#1C99D9" opacity="1.000000" stroke="none" 
	d="
M57.664803,62.996895 
	C57.998837,63.439713 58.000729,63.883614 58.004288,64.660248 
	C55.206242,65.264648 52.508865,64.657967 49.406952,64.018631 
	C48.033760,62.552238 47.066605,61.105637 46.046947,59.333176 
	C46.740566,59.009327 47.486691,59.011345 48.605499,59.018623 
	C49.730568,62.444023 52.423042,62.810600 55.617310,62.997532 
	C56.447002,62.998512 56.889832,62.998249 57.664803,62.996895 
z"/>
</svg>